# xmcd CD database file
#
# Track frame offsets:
#	187
#	17679
#	30959
#
# Disc length: 643 seconds
#
# Revision: 1
# Processed by: cddbd v1.5.2PL0 Copyright (c) Steve Scherf et al.
# Submitted via: CDex 1.70beta2
#
DISCID=13028103
DTITLE=CASCADE - cuckoo
DYEAR=1998
DGENRE=Alternative
TTITLE0=cuckoo
TTITLE1=エントロビースト
TTITLE2=cuckoo (non vocal edit)
EXTD=YEAR: 1998
EXTT0=
EXTT1=
EXTT2=
PLAYORDER=
